<?xml version="1.0" encoding="UTF-8" standalone="no"?>
<!-- Created with Inkscape (http://www.inkscape.org/) -->

<svg
   xmlns:dc="http://purl.org/dc/elements/1.1/"
   xmlns:cc="http://creativecommons.org/ns#"
   xmlns:rdf="http://www.w3.org/1999/02/22-rdf-syntax-ns#"
   xmlns:svg="http://www.w3.org/2000/svg"
   xmlns="http://www.w3.org/2000/svg"
   xmlns:xlink="http://www.w3.org/1999/xlink"
   xmlns:sodipodi="http://sodipodi.sourceforge.net/DTD/sodipodi-0.dtd"
   xmlns:inkscape="http://www.inkscape.org/namespaces/inkscape"
   sodipodi:docname="icon.svg"
   inkscape:version="0.48.4 r9939"
   version="1.1"
   id="svg2"
   height="192"
   width="192"
   inkscape:export-filename="/home/miquel/dev/github/android-discogsbrowser/art/icon2.png"
   inkscape:export-xdpi="90"
   inkscape:export-ydpi="90">
  <sodipodi:namedview
     id="base"
     pagecolor="#ffffff"
     bordercolor="#666666"
     borderopacity="1.0"
     inkscape:pageopacity="0.0"
     inkscape:pageshadow="2"
     inkscape:zoom="4.734375"
     inkscape:cx="96"
     inkscape:cy="96"
     inkscape:document-units="px"
     inkscape:current-layer="layer6"
     showgrid="false"
     showguides="true"
     inkscape:guide-bbox="true"
     inkscape:window-width="1871"
     inkscape:window-height="1056"
     inkscape:window-x="49"
     inkscape:window-y="24"
     inkscape:window-maximized="1"
     inkscape:snap-global="true"
     inkscape:snap-to-guides="true"
     inkscape:snap-grids="true"
     inkscape:snap-center="true"
     inkscape:snap-object-midpoints="true"
     inkscape:snap-midpoints="true"
     inkscape:snap-smooth-nodes="true"
     inkscape:object-nodes="true">
    <inkscape:grid
       snapvisiblegridlinesonly="true"
       enabled="true"
       visible="true"
       empspacing="5"
       id="grid2985"
       type="xygrid" />
    <sodipodi:guide
       id="guide3002"
       position="8,58.524064"
       orientation="1,0" />
    <sodipodi:guide
       id="guide3004"
       position="20,69.304813"
       orientation="1,0" />
    <sodipodi:guide
       id="guide3006"
       position="32,62.631016"
       orientation="1,0" />
    <sodipodi:guide
       id="guide3008"
       position="68,53.390374"
       orientation="1,0" />
    <sodipodi:guide
       id="guide3010"
       position="119.61497,8"
       orientation="0,1" />
    <sodipodi:guide
       id="guide3012"
       position="155.5508,20"
       orientation="0,1" />
    <sodipodi:guide
       id="guide3014"
       position="132.96257,32"
       orientation="0,1" />
    <sodipodi:guide
       id="guide3016"
       position="130.90909,68"
       orientation="0,1" />
    <sodipodi:guide
       id="guide3018"
       position="137.06952,184"
       orientation="0,1" />
    <sodipodi:guide
       id="guide3020"
       position="184,145.79679"
       orientation="1,0" />
    <sodipodi:guide
       id="guide3022"
       position="91.379679,172"
       orientation="0,1" />
    <sodipodi:guide
       id="guide3024"
       position="172,101.64706"
       orientation="1,0" />
    <sodipodi:guide
       id="guide3026"
       position="149.39037,160"
       orientation="0,1" />
    <sodipodi:guide
       id="guide3028"
       position="160,88.299465"
       orientation="1,0" />
    <sodipodi:guide
       id="guide3030"
       position="128.34225,124"
       orientation="0,1" />
    <sodipodi:guide
       id="guide3032"
       position="124,92.919786"
       orientation="1,0" />
    <sodipodi:guide
       id="guide4005"
       position="56.377397,96.017309"
       orientation="1,0" />
    <sodipodi:guide
       id="guide4007"
       position="95.986507,96.017307"
       orientation="1,0" />
    <sodipodi:guide
       id="guide4011"
       position="95.986506,56.39434"
       orientation="0,1" />
    <sodipodi:guide
       id="guide4013"
       position="95.986506,135.64028"
       orientation="0,1" />
    <sodipodi:guide
       id="guide4015"
       position="135.59561,96.017309"
       orientation="1,0" />
    <sodipodi:guide
       id="guide4022"
       position="87.184481,96.017309"
       orientation="1,0" />
    <sodipodi:guide
       id="guide4024"
       position="104.78853,96.017309"
       orientation="1,0" />
    <sodipodi:guide
       id="guide4026"
       position="95.986506,104.82241"
       orientation="0,1" />
    <sodipodi:guide
       id="guide4028"
       position="95.986506,87.2122"
       orientation="0,1" />
  </sodipodi:namedview>
  <defs
     id="defs4">
    <linearGradient
       id="linearGradient5121">
      <stop
         style="stop-color:#212121;stop-opacity:1;"
         offset="0"
         id="stop5123" />
      <stop
         style="stop-color:#616161;stop-opacity:0;"
         offset="1"
         id="stop5125" />
    </linearGradient>
    <linearGradient
       id="linearGradient5103">
      <stop
         style="stop-color:#000000;stop-opacity:1;"
         offset="0"
         id="stop5105" />
      <stop
         style="stop-color:#616161;stop-opacity:0;"
         offset="1"
         id="stop5107" />
    </linearGradient>
    <clipPath
       clipPathUnits="userSpaceOnUse"
       id="clipPath5075">
      <g
         id="g5077">
        <g
           id="g5079"
           style="fill:#000000;fill-opacity:1">
          <path
             id="path5081"
             d="m 135.59561,95.982689 c 0,21.883161 -17.7336,39.622971 -39.609106,39.622971 L 803.09329,842.71244 c 21.8755,0 39.6091,-17.73981 39.6091,-39.62297 z"
             inkscape:connector-curvature="0" />
          <path
             id="path5083"
             d="m 95.986504,135.60566 c -10.935245,0 -20.835488,-4.43292 -28.002937,-11.60037 L 775.09035,831.11207 c 7.16745,7.16745 17.06769,11.60037 28.00294,11.60037 z"
             inkscape:connector-curvature="0" />
          <path
             id="path5085"
             d="M 67.983567,124.00529 C 60.81283,116.83456 56.377396,106.92678 56.377396,95.982689 L 763.48418,803.08947 c 0,10.94409 4.43543,20.85187 11.60617,28.0226 z"
             inkscape:connector-curvature="0" />
          <path
             id="path5087"
             d="m 56.377396,95.982689 c 0,-21.883162 17.733601,-39.622971 39.609108,-39.622971 L 803.09329,763.4665 c -21.87551,0 -39.60911,17.73981 -39.60911,39.62297 z"
             inkscape:connector-curvature="0" />
          <path
             id="path5089"
             d="m 95.986504,56.359718 c 10.935246,0 20.835486,4.432918 28.002936,11.600366 L 831.09622,775.06687 c -7.16745,-7.16745 -17.06769,-11.60037 -28.00293,-11.60037 z"
             inkscape:connector-curvature="0" />
          <path
             id="path5091"
             d="m 123.98944,67.960084 c 7.17074,7.170737 11.60617,17.078514 11.60617,28.022605 L 842.70239,803.08947 c 0,-10.94409 -4.43543,-20.85187 -11.60617,-28.0226 z"
             inkscape:connector-curvature="0" />
        </g>
        <path
           id="path5093"
           d="m 135.59561,95.982689 c 0,21.883161 -17.7336,39.622971 -39.609106,39.622971 -21.875507,0 -39.609108,-17.73981 -39.609108,-39.622971 0,-21.883162 17.733601,-39.622971 39.609108,-39.622971 21.875506,0 39.609106,17.739809 39.609106,39.622971 z"
           style="fill:#000000;fill-opacity:1"
           inkscape:connector-curvature="0" />
      </g>
    </clipPath>
    <linearGradient
       inkscape:collect="always"
       xlink:href="#linearGradient5121"
       id="linearGradient5127"
       x1="95.986504"
       y1="95.982689"
       x2="160"
       y2="160"
       gradientUnits="userSpaceOnUse" />
  </defs>
  <metadata
     id="metadata7">
    <rdf:RDF>
      <cc:Work
         rdf:about="">
        <dc:format>image/svg+xml</dc:format>
        <dc:type
           rdf:resource="http://purl.org/dc/dcmitype/StillImage" />
        <dc:title></dc:title>
      </cc:Work>
    </rdf:RDF>
  </metadata>
  <g
     style="display:none"
     sodipodi:insensitive="true"
     transform="translate(0,-860.3622)"
     id="layer1"
     inkscape:groupmode="layer"
     inkscape:label="Horizontal rectangle">
    <rect
       ry="4.1776319"
       y="892.86218"
       x="8.5"
       height="127"
       width="175"
       id="rect3034"
       style="fill:none;stroke:#455a64;stroke-width:0.99999595;stroke-linejoin:round;stroke-miterlimit:4;stroke-opacity:1;stroke-dasharray:none" />
  </g>
  <g
     style="display:none"
     sodipodi:insensitive="true"
     inkscape:label="Vertical rectangle"
     id="layer2"
     inkscape:groupmode="layer">
    <rect
       ry="4.8130932"
       y="8.5002289"
       x="32.500229"
       height="174.99954"
       width="126.99954"
       id="rect3037"
       style="fill:none;stroke:#455a64;stroke-width:1.0004611;stroke-linejoin:round;stroke-miterlimit:4;stroke-opacity:1;stroke-dasharray:none" />
  </g>
  <g
     sodipodi:insensitive="true"
     style="display:none"
     inkscape:label="circle"
     id="layer3"
     inkscape:groupmode="layer">
    <path
       transform="matrix(3.6455219,0,0,3.6455219,-443.53724,-160.86308)"
       d="m 172,70.459892 a 24,24 0 1 1 -48,0 24,24 0 1 1 48,0 z"
       sodipodi:ry="24"
       sodipodi:rx="24"
       sodipodi:cy="70.459892"
       sodipodi:cx="148"
       id="path3040"
       style="fill:none;stroke:#455a64;stroke-width:0.27840909;stroke-linejoin:round;stroke-miterlimit:4;stroke-opacity:1;stroke-dasharray:none"
       sodipodi:type="arc" />
  </g>
  <g
     sodipodi:insensitive="true"
     style="display:none"
     inkscape:label="Square"
     id="layer4"
     inkscape:groupmode="layer">
    <rect
       ry="10.897427"
       y="20.500031"
       x="20.500031"
       height="150.99994"
       width="150.99994"
       id="rect3811"
       style="fill:none;stroke:#455a64;stroke-width:1.00005436;stroke-linejoin:round;stroke-miterlimit:4;stroke-opacity:1;stroke-dasharray:none" />
  </g>
  <g
     style="display:inline"
     inkscape:label="vinyl"
     id="layer5"
     inkscape:groupmode="layer"
     sodipodi:insensitive="true">
    <path
       style="fill:#616161;fill-opacity:1"
       id="path3154"
       d="m 95.986506,7.9316466 c -48.587175,0 -88.0202427,39.4468674 -88.0202427,88.0510444 0,48.604169 39.4330677,88.051049 88.0202427,88.051049 48.587174,0 88.020244,-39.44688 88.020244,-88.051049 0,-48.604177 -39.43307,-88.0510444 -88.020244,-88.0510444 z m 0,127.6740134 c -21.917041,0 -39.609109,-17.69826 -39.609109,-39.622969 0,-21.92471 17.692068,-39.62297 39.609109,-39.62297 21.917034,0 39.609104,17.69826 39.609104,39.62297 0,21.924709 -17.69207,39.622969 -39.609104,39.622969 z m 0,-48.428072 c -4.841114,0 -8.802025,3.962297 -8.802025,8.805103 0,4.842809 3.960911,8.805109 8.802025,8.805109 4.841114,0 8.802024,-3.9623 8.802024,-8.805109 0,-4.842806 -3.96091,-8.805103 -8.802024,-8.805103 z"
       inkscape:connector-curvature="0"
       mask="none" />
  </g>
  <g
     style="display:inline"
     inkscape:label="record label"
     id="layer6"
     inkscape:groupmode="layer">
    <path
       d="m 135.59561,95.982689 a 39.609108,39.622971 0 1 1 -79.218214,0 39.609108,39.622971 0 1 1 79.218214,0 z"
       sodipodi:ry="39.622971"
       sodipodi:rx="39.609108"
       sodipodi:cy="95.982689"
       sodipodi:cx="95.986504"
       id="path4019"
       style="fill:#9e9e9e;fill-opacity:1"
       sodipodi:type="arc"
       mask="none" />
  </g>
  <g
     inkscape:groupmode="layer"
     id="g5071"
     inkscape:label="shadow"
     style="display:inline"
     sodipodi:insensitive="true">
    <path
       mask="none"
       inkscape:connector-curvature="0"
       d="m 95.986506,7.9316466 c -48.587175,0 -88.0202427,39.4468674 -88.0202427,88.0510444 0,48.604169 39.4330677,88.051049 88.0202427,88.051049 48.587174,0 88.020244,-39.44688 88.020244,-88.051049 0,-48.604177 -39.43307,-88.0510444 -88.020244,-88.0510444 z m 0,127.6740134 c -21.917041,0 -39.609109,-17.69826 -39.609109,-39.622969 0,-21.92471 17.692068,-39.62297 39.609109,-39.62297 21.917034,0 39.609104,17.69826 39.609104,39.62297 0,21.924709 -17.69207,39.622969 -39.609104,39.622969 z m 0,-48.428072 c -4.841114,0 -8.802025,3.962297 -8.802025,8.805103 0,4.842809 3.960911,8.805109 8.802025,8.805109 4.841114,0 8.802024,-3.9623 8.802024,-8.805109 0,-4.842806 -3.96091,-8.805103 -8.802024,-8.805103 z"
       id="path5073"
       style="fill:url(#linearGradient5127);fill-opacity:1"
       clip-path="url(#clipPath5075)" />
  </g>
  <g
     inkscape:groupmode="layer"
     id="layer8"
     inkscape:label="Layer"
     style="display:none"
     sodipodi:insensitive="true" />
  <g
     sodipodi:insensitive="true"
     inkscape:label="hole"
     id="layer7"
     inkscape:groupmode="layer"
     style="display:none" />
</svg>
